# This file uses centimeters as units for non-parametric coordinates.

mtllib small_mushroom_2_mdl.mtl
g default
v 1.068521 0.787652 1.412238
v 1.949279 0.790676 1.701226
v 1.642793 0.792283 1.091502
v 1.738539 2.185065 1.492245
v 1.366120 0.783336 2.010554
v 2.485608 1.305699 1.802844
v 1.876485 1.362324 0.605927
v 0.730302 1.592509 1.246881
v 1.340761 1.535885 2.413226
v 2.211189 1.747995 1.677100
v 1.839275 1.782493 0.966519
v 1.141791 1.922730 1.338387
v 1.513705 1.888233 2.048968
v 1.292636 0.783336 1.122468
v 0.929321 0.269531 1.348236
v 1.027532 0.783336 1.792309
v 1.139522 1.194200 1.416171
v 1.923485 0.796323 1.298989
v 2.030187 1.174861 1.690493
v 1.752536 0.794360 2.002040
v 2.081741 0.278736 1.739539
v 1.311980 0.282201 2.158362
v 1.663245 0.278736 0.948929
v 1.728353 1.190778 1.107185
v 1.444517 1.195348 1.999002
v 1.958215 2.059211 1.570612
v 1.794628 2.074384 1.258061
v 1.487838 2.136068 1.421628
v 1.651425 2.120894 1.734179
v 2.199603 1.730185 1.228843
v 2.065799 1.406636 2.399621
v 1.397554 1.861236 0.974808
v 1.153377 1.940541 1.786645
v 2.466590 1.276465 1.067076
v 1.955426 1.809489 2.040679
v 1.150111 1.491573 0.650104
v 0.749319 1.621743 1.982649
v 0.951402 0.284829 1.854606
v 1.208946 0.278736 0.944910
v 1.150507 1.186730 1.786941
v 1.379302 1.193944 1.114914
v 1.791061 0.278736 2.146439
v 2.070145 0.278736 1.239610
v 1.823505 1.194088 1.985981
v 2.021648 1.174861 1.322349
v 1.967971 2.009878 1.348996
v 1.875470 2.056460 1.773347
v 1.571108 2.092632 1.220674
v 1.447644 2.131547 1.624124
v 1.058857 0.024020 1.393962
v 1.952205 0.031155 1.697297
v 1.355491 0.033841 2.021966
v 1.627790 0.031155 1.084421
v 1.075974 0.035879 1.786497
v 1.275620 0.031155 1.081305
v 1.726872 0.031155 2.012723
v 1.943216 0.031155 1.309755
vt 0.806038 0.395859
vt 0.811827 0.352664
vt 0.870054 0.356416
vt 0.867480 0.408340
vt 0.804387 0.009809
vt 0.876732 0.003895
vt 0.871022 0.065871
vt 0.810988 0.066996
vt 0.757339 0.075749
vt 0.747043 0.023835
vt 0.758815 0.386455
vt 0.763226 0.341656
vt 0.809366 0.213136
vt 0.809597 0.265072
vt 0.761579 0.259909
vt 0.760478 0.216744
vt 0.758388 0.173074
vt 0.809520 0.166334
vt 0.870417 0.163061
vt 0.870358 0.213011
vt 0.870463 0.263094
vt 0.811300 0.309410
vt 0.870665 0.312587
vt 0.763156 0.301399
vt 0.160462 0.642511
vt 0.184619 0.630893
vt 0.183912 0.653551
vt 0.164277 0.659243
vt 0.142580 0.657915
vt 0.137732 0.636749
vt 0.137680 0.613407
vt 0.159150 0.600794
vt 0.181048 0.606501
vt 0.810949 0.116851
vt 0.757989 0.124815
vt 0.871201 0.115340
vt 0.562227 0.787593
vt 0.520270 0.775567
vt 0.507385 0.714936
vt 0.591623 0.737915
vt 0.589725 0.820387
vt 0.649479 0.803301
vt 0.484859 0.800232
vt 0.471563 0.839412
vt 0.400927 0.844458
vt 0.431717 0.762459
vt 0.510346 0.907226
vt 0.553121 0.896987
vt 0.589862 0.961096
vt 0.504104 0.977562
vt 0.491949 0.880234
vt 0.436650 0.924102
vt 0.581357 0.864545
vt 0.640813 0.890175
vt 0.293655 0.615183
vt 0.270553 0.716843
vt 0.216183 0.675255
vt 0.227059 0.623889
vt 0.246035 0.522017
vt 0.203673 0.576230
vt 0.177694 0.767457
vt 0.077155 0.741499
vt 0.119216 0.687581
vt 0.169816 0.699186
vt 0.029389 0.649022
vt 0.052191 0.546974
vt 0.106994 0.588686
vt 0.095831 0.640634
vt 0.144508 0.498207
vt 0.153142 0.563983
vt 0.900904 0.357204
vt 0.901718 0.403989
vt 0.911994 0.015574
vt 0.904749 0.067093
vt 0.902574 0.163856
vt 0.902638 0.213430
vt 0.902047 0.262817
vt 0.903944 0.115449
vt 0.902617 0.311998
vn -0.917584 0.232724 -0.322303
vn -0.454496 0.213676 -0.864740
vn -0.461505 -0.107153 -0.880643
vn -0.948357 -0.119967 -0.293645
vn -0.888550 -0.141910 0.436281
vn -0.870269 0.234992 0.432909
vn -0.868790 0.220018 0.443618
vn -0.919100 0.199649 -0.339698
vn -0.457590 0.092918 -0.884295
vn 0.960238 0.034194 0.277080
vn 0.878639 0.051575 -0.474692
vn 0.864451 -0.180766 -0.469092
vn 0.943112 -0.193299 0.270511
vn 0.476078 -0.062196 0.877201
vn 0.474277 0.112863 0.873111
vn 0.469305 -0.131187 0.873237
vn 0.951114 -0.121758 0.283826
vn 0.875453 -0.125334 -0.466769
vn 0.286057 0.126306 -0.949852
vn 0.299475 -0.113799 -0.947293
vn 0.283751 -0.041001 -0.958021
vn 0.188732 0.980904 -0.046993
vn 0.600288 0.795418 0.083456
vn 0.615628 0.731903 -0.292096
vn 0.305363 0.823084 -0.478837
vn -0.099695 0.856332 -0.506711
vn -0.285262 0.942367 -0.174842
vn -0.317994 0.925854 0.204142
vn 0.021427 0.915776 0.401118
vn 0.399320 0.807401 0.434336
vn -0.287986 0.184652 0.939664
vn -0.278673 0.096545 0.955521
vn -0.317778 -0.123851 0.940041
vn 0.247131 -0.956231 0.156682
vn 0.177066 -0.975946 -0.127190
vn 0.177066 -0.975946 -0.127190
vn 0.247131 -0.956231 0.156682
vn 0.078447 -0.895776 0.437530
vn 0.078447 -0.895776 0.437530
vn -0.017321 -0.936327 -0.350701
vn -0.345206 -0.859617 -0.376686
vn -0.345206 -0.859617 -0.376686
vn -0.017321 -0.936327 -0.350701
vn -0.641804 -0.753710 -0.141455
vn -0.608428 -0.736190 0.296377
vn -0.608428 -0.736190 0.296377
vn -0.641804 -0.753710 -0.141455
vn -0.272234 -0.782774 0.559601
vn -0.272234 -0.782774 0.559601
vn 0.809405 0.555959 0.189136
vn 0.743412 0.570545 -0.349023
vn 0.706995 0.621305 -0.337845
vn 0.778755 0.604961 0.166019
vn 0.452700 0.659106 0.600535
vn 0.443436 0.699713 0.560148
vn 0.326036 0.620746 -0.713004
vn -0.215463 0.728300 -0.650503
vn -0.186816 0.761297 -0.620908
vn 0.328166 0.654873 -0.680771
vn -0.572062 0.781686 -0.248420
vn -0.497088 0.814297 0.299706
vn -0.454906 0.847422 0.273744
vn -0.532988 0.811715 -0.238837
vn -0.091616 0.737121 0.669522
vn -0.074276 0.774036 0.628770
vn -0.389098 -0.522683 -0.758555
vn -0.839818 -0.487563 -0.238723
vn -0.777740 -0.495123 0.387264
vn 0.402177 -0.513618 0.757925
vn 0.837469 -0.482083 0.257374
vn 0.763044 -0.505361 -0.402957
vn -0.290668 -0.499210 0.816273
vn 0.270518 -0.491698 -0.827679
s 1
g sm_mushroom_mdl2 polySurface4
usemtl mushroom_SG
f 1/1/1 14/2/2 39/3/3 15/4/4
f 1/5/1 15/6/4 38/7/5 16/8/6
f 1/5/1 16/8/6 40/9/7 17/10/8
f 1/1/1 17/11/8 41/12/9 14/2/2
f 2/13/10 18/14/11 45/15/12 19/16/13
f 2/13/10 19/16/13 44/17/14 20/18/15
f 2/13/10 20/18/15 42/19/16 21/20/17
f 2/13/10 21/20/17 43/21/18 18/14/11
f 3/22/19 18/14/11 43/21/18 23/23/20
f 3/22/19 23/23/20 39/3/3 14/2/2
f 3/22/19 14/2/2 41/12/9 24/24/21
f 3/22/19 24/24/21 45/15/12 18/14/11
s 3
f 4/25/22 26/26/23 46/27/24 27/28/25
f 4/25/22 27/28/25 48/29/26 28/30/27
f 4/25/22 28/30/27 49/31/28 29/32/29
f 4/25/22 29/32/29 47/33/30 26/26/23
s 1
f 5/34/31 20/18/15 44/17/14 25/35/32
f 5/34/31 25/35/32 40/9/7 16/8/6
f 5/34/31 16/8/6 38/7/5 22/36/33
f 5/34/31 22/36/33 42/19/16 20/18/15
s 4
f 19/37/34 45/38/35 34/39/36 6/40/37
f 44/41/38 19/37/34 6/40/37 31/42/39
f 24/43/40 41/44/41 36/45/42 7/46/43
f 45/38/35 24/43/40 7/46/43 34/39/36
f 17/47/44 40/48/45 37/49/46 8/50/47
f 41/44/41 17/51/44 8/52/47 36/45/42
f 25/53/48 44/41/38 31/42/39 9/54/49
f 40/48/45 25/53/48 9/54/49 37/49/46
s 3
f 6/55/50 34/56/51 30/57/52 10/58/53
f 31/59/54 6/55/50 10/58/53 35/60/55
f 7/61/56 36/62/57 32/63/58 11/64/59
f 34/56/51 7/61/56 11/64/59 30/57/52
f 8/65/60 37/66/61 33/67/62 12/68/63
f 36/62/57 8/65/60 12/68/63 32/63/58
f 9/69/64 31/59/54 35/60/55 13/70/65
f 37/66/61 9/69/64 13/70/65 33/67/62
f 10/58/53 30/57/52 46/27/24 26/26/23
f 10/58/53 26/26/23 47/33/30 35/60/55
f 11/64/59 32/63/58 48/29/26 27/28/25
f 11/64/59 27/28/25 46/27/24 30/57/52
f 12/68/63 33/67/62 49/31/28 28/30/27
f 12/68/63 28/30/27 48/29/26 32/63/58
f 13/70/65 35/60/55 47/33/30 29/32/29
f 13/70/65 29/32/29 49/31/28 33/67/62
s 1
f 55/71/66 50/72/67 15/4/4 39/3/3
f 50/73/67 54/74/68 38/7/5 15/6/4
f 56/75/69 51/76/70 21/20/17 42/19/16
f 51/76/70 57/77/71 43/21/18 21/20/17
f 42/19/16 22/36/33 52/78/72 56/75/69
f 22/36/33 38/7/5 54/74/68 52/78/72
f 39/3/3 23/23/20 53/79/73 55/71/66
f 23/23/20 43/21/18 57/77/71 53/79/73
