# This file uses centimeters as units for non-parametric coordinates.

mtllib small_mushroom_1_mdl.mtl
g default
v 1.009924 0.656625 -1.906435
v 1.002302 0.662345 -1.057478
v 1.382612 0.655543 -1.438065
v 0.994314 1.813461 -1.515433
v 0.637062 0.656778 -1.508292
v 1.003447 1.194101 -0.703699
v 1.807409 1.216554 -1.490222
v 1.020016 1.159497 -2.293619
v 0.225031 1.149743 -1.481796
v 0.990408 1.522528 -1.025094
v 1.484394 1.512085 -1.485240
v 0.997559 1.556394 -1.979339
v 0.514706 1.480331 -1.512466
v 1.286968 0.655550 -1.769484
v 1.026352 0.224794 -2.042586
v 0.746775 0.659475 -1.817617
v 1.009551 0.973158 -1.885056
v 1.292970 0.658936 -1.137026
v 1.003544 0.988427 -1.091398
v 0.714234 0.659824 -1.174664
v 1.003278 0.222055 -0.949290
v 0.512900 0.224794 -1.508512
v 1.523143 0.219778 -1.477873
v 1.376486 0.992974 -1.462340
v 0.644748 0.972909 -1.499573
v 0.992846 1.748029 -1.295612
v 1.208843 1.742668 -1.499913
v 0.990882 1.745141 -1.737990
v 0.779279 1.735299 -1.517622
v 1.360217 1.517530 -1.134017
v 0.399975 1.166347 -0.920342
v 1.360453 1.509608 -1.874979
v 0.626854 1.495754 -1.891369
v 1.576503 1.215540 -0.907816
v 0.626487 1.498408 -1.153005
v 1.611686 1.191876 -2.103327
v 0.423761 1.163096 -2.087519
v 0.693659 0.232529 -1.922870
v 1.378644 0.219904 -1.898229
v 0.721810 0.974817 -1.798347
v 1.294746 0.984521 -1.777233
v 0.598082 0.220274 -1.089427
v 1.407594 0.220018 -1.083681
v 0.719671 0.979600 -1.201612
v 1.288749 0.993599 -1.177256
v 1.197189 1.690307 -1.295182
v 0.788888 1.684757 -1.308171
v 1.195017 1.686993 -1.715325
v 0.786957 1.681157 -1.729813
v 1.024333 0.033458 -1.910066
v 1.006853 0.031383 -1.081810
v 0.635354 0.033458 -1.505464
v 1.400689 0.029658 -1.482253
v 0.772292 0.039318 -1.819371
v 1.291221 0.029754 -1.800704
v 0.699886 0.030034 -1.187975
v 1.313152 0.029840 -1.183622
vt 0.353267 0.666144
vt 0.353436 0.625509
vt 0.406214 0.630343
vt 0.404187 0.668070
vt 0.400759 0.703289
vt 0.349035 0.702430
vt 0.306922 0.704243
vt 0.305110 0.664066
vt 0.309497 0.622829
vt 0.352602 0.504798
vt 0.354872 0.541747
vt 0.313281 0.544586
vt 0.312538 0.507402
vt 0.310502 0.469851
vt 0.349976 0.466763
vt 0.400430 0.460080
vt 0.402888 0.502249
vt 0.404877 0.544331
vt 0.354410 0.581017
vt 0.406717 0.585083
vt 0.311825 0.581815
vt 0.267095 0.866302
vt 0.285628 0.853325
vt 0.293556 0.872601
vt 0.273746 0.879916
vt 0.252714 0.884780
vt 0.246756 0.864779
vt 0.239609 0.841434
vt 0.259530 0.831125
vt 0.279709 0.829409
vt 0.343627 0.425338
vt 0.305456 0.432552
vt 0.345404 0.743866
vt 0.305723 0.742864
vt 0.399742 0.754887
vt 0.396802 0.413868
vt 0.923925 0.904767
vt 0.942575 0.874736
vt 0.996032 0.879687
vt 0.960025 0.942309
vt 0.891009 0.919719
vt 0.891187 0.974897
vt 0.932085 0.840929
vt 0.904332 0.814071
vt 0.921260 0.757227
vt 0.978992 0.807317
vt 0.868298 0.817609
vt 0.840397 0.839824
vt 0.791366 0.816933
vt 0.848227 0.768228
vt 0.858001 0.904211
vt 0.826642 0.948283
vt 0.841679 0.876421
vt 0.790063 0.892592
vt 0.375108 0.822970
vt 0.369689 0.909814
vt 0.320489 0.885867
vt 0.319808 0.840091
vt 0.319722 0.751092
vt 0.293021 0.802596
vt 0.300677 0.966345
vt 0.210046 0.961650
vt 0.237649 0.910726
vt 0.285670 0.913386
vt 0.158450 0.890536
vt 0.165615 0.801931
vt 0.212740 0.828032
vt 0.217597 0.872048
vt 0.236137 0.746824
vt 0.249224 0.799758
vt 0.432085 0.629896
vt 0.430586 0.669155
vt 0.427440 0.705462
vt 0.425915 0.458511
vt 0.429221 0.501103
vt 0.430793 0.543713
vt 0.425417 0.417274
vt 0.427940 0.748959
vt 0.432778 0.585512
vn 0.046472 0.174383 -0.983581
vn 0.740513 0.169986 -0.650189
vn 0.731166 -0.135038 -0.668701
vn 0.027312 -0.148636 -0.988515
vn -0.681222 -0.162992 -0.713702
vn -0.693635 0.150131 -0.704508
vn -0.710685 0.020296 -0.703218
vn 0.051298 0.034114 -0.998101
vn 0.755713 -0.000174 -0.654903
vn -0.038325 0.172677 0.984233
vn 0.694511 0.180267 0.696533
vn 0.700436 0.085923 0.708524
vn -0.050367 0.105344 0.993160
vn -0.755187 0.066278 0.652151
vn -0.743058 0.181720 0.644083
vn -0.743888 -0.175083 0.644962
vn -0.016731 -0.185476 0.982506
vn 0.702659 -0.182527 0.687717
vn 0.987489 0.157682 0.001387
vn 0.990610 -0.135659 -0.016973
vn 0.999816 0.014250 0.012845
vn -0.014066 0.999895 -0.003510
vn -0.029113 0.884576 0.465487
vn 0.376165 0.844471 0.381272
vn 0.476942 0.878933 -0.001525
vn 0.412695 0.833967 -0.366308
vn 0.000087 0.890107 -0.455752
vn -0.433551 0.825389 -0.361615
vn -0.518622 0.855002 -0.001724
vn -0.435454 0.822957 0.364859
vn -0.988917 0.137172 -0.056804
vn -0.999491 0.007061 -0.031122
vn -0.983740 -0.150383 -0.098183
vn 0.028708 -0.881363 0.471566
vn 0.339224 -0.879842 0.332874
vn 0.339224 -0.879842 0.332874
vn 0.028708 -0.881363 0.471566
vn -0.266857 -0.914931 0.302800
vn -0.266857 -0.914931 0.302800
vn 0.471838 -0.881001 0.034748
vn 0.326529 -0.909157 -0.258479
vn 0.326529 -0.909157 -0.258479
vn 0.471838 -0.881001 0.034748
vn 0.018356 -0.908977 -0.416442
vn -0.280972 -0.916273 -0.285479
vn -0.280972 -0.916273 -0.285479
vn 0.018356 -0.908977 -0.416442
vn -0.402919 -0.915236 -0.000396
vn -0.402919 -0.915236 -0.000396
vn -0.032030 0.698480 0.714913
vn 0.468806 0.728584 0.499386
vn 0.447464 0.761551 0.468845
vn -0.033035 0.735581 0.676631
vn -0.536646 0.699039 0.472604
vn -0.514391 0.732541 0.445853
vn 0.687880 0.725748 0.010554
vn 0.476506 0.717155 -0.508558
vn 0.470812 0.752512 -0.460502
vn 0.661102 0.750278 0.005183
vn -0.015988 0.640220 -0.768025
vn -0.548255 0.650845 -0.525183
vn -0.521107 0.713342 -0.468605
vn -0.005960 0.718784 -0.695208
vn -0.761160 0.648504 -0.008863
vn -0.723995 0.689792 -0.004223
vn 0.599839 -0.565893 -0.565649
vn 0.008489 -0.569416 -0.822006
vn -0.572360 -0.555867 -0.602840
vn -0.607418 -0.596698 0.524399
vn -0.004526 -0.570765 0.821101
vn 0.584421 -0.585478 0.561843
vn -0.837532 -0.537573 -0.097756
vn 0.840745 -0.541038 -0.020610
s 1
g sm_mushroom_mdl1 polySurface4
usemtl mushroom_SG
f 1/1/1 14/2/2 39/3/3 15/4/4
f 1/1/1 15/4/4 38/5/5 16/6/6
f 1/1/1 16/6/6 40/7/7 17/8/8
f 1/1/1 17/8/8 41/9/9 14/2/2
f 2/10/10 18/11/11 45/12/12 19/13/13
f 2/10/10 19/13/13 44/14/14 20/15/15
f 2/10/10 20/15/15 42/16/16 21/17/17
f 2/10/10 21/17/17 43/18/18 18/11/11
f 3/19/19 18/11/11 43/18/18 23/20/20
f 3/19/19 23/20/20 39/3/3 14/2/2
f 3/19/19 14/2/2 41/9/9 24/21/21
f 3/19/19 24/21/21 45/12/12 18/11/11
s 3
f 4/22/22 26/23/23 46/24/24 27/25/25
f 4/22/22 27/25/25 48/26/26 28/27/27
f 4/22/22 28/27/27 49/28/28 29/29/29
f 4/22/22 29/29/29 47/30/30 26/23/23
s 1
f 5/31/31 20/15/15 44/14/14 25/32/32
f 5/33/31 25/34/32 40/7/7 16/6/6
f 5/33/31 16/6/6 38/5/5 22/35/33
f 5/31/31 22/36/33 42/16/16 20/15/15
s 4
f 19/37/34 45/38/35 34/39/36 6/40/37
f 44/41/38 19/37/34 6/40/37 31/42/39
f 24/43/40 41/44/41 36/45/42 7/46/43
f 45/38/35 24/43/40 7/46/43 34/39/36
f 17/47/44 40/48/45 37/49/46 8/50/47
f 41/44/41 17/47/44 8/50/47 36/45/42
f 25/51/48 44/41/38 31/42/39 9/52/49
f 40/48/45 25/53/48 9/54/49 37/49/46
s 3
f 6/55/50 34/56/51 30/57/52 10/58/53
f 31/59/54 6/55/50 10/58/53 35/60/55
f 7/61/56 36/62/57 32/63/58 11/64/59
f 34/56/51 7/61/56 11/64/59 30/57/52
f 8/65/60 37/66/61 33/67/62 12/68/63
f 36/62/57 8/65/60 12/68/63 32/63/58
f 9/69/64 31/59/54 35/60/55 13/70/65
f 37/66/61 9/69/64 13/70/65 33/67/62
f 10/58/53 30/57/52 46/24/24 26/23/23
f 10/58/53 26/23/23 47/30/30 35/60/55
f 11/64/59 32/63/58 48/26/26 27/25/25
f 11/64/59 27/25/25 46/24/24 30/57/52
f 12/68/63 33/67/62 49/28/28 28/27/27
f 12/68/63 28/27/27 48/26/26 32/63/58
f 13/70/65 35/60/55 47/30/30 29/29/29
f 13/70/65 29/29/29 49/28/28 33/67/62
s 1
f 55/71/66 50/72/67 15/4/4 39/3/3
f 50/72/67 54/73/68 38/5/5 15/4/4
f 56/74/69 51/75/70 21/17/17 42/16/16
f 51/75/70 57/76/71 43/18/18 21/17/17
f 42/16/16 22/36/33 52/77/72 56/74/69
f 22/35/33 38/5/5 54/73/68 52/78/72
f 39/3/3 23/20/20 53/79/73 55/71/66
f 23/20/20 43/18/18 57/76/71 53/79/73
